<svg width="18" height="15" viewBox="0 0 18 15" fill="none" xmlns="http://www.w3.org/2000/svg">
<g filter="url(#filter0_d_1_1671)">
<path d="M15 1.10786L13.8921 0L9.5 4.39214L5.10786 0L4 1.10786L8.39214 5.5L4 9.89214L5.10786 11L9.5 6.60786L13.8921 11L15 9.89214L10.6079 5.5L15 1.10786Z" fill="black"/>
<path d="M10.2543 5.85355L14.2929 9.89214L13.8921 10.2929L9.85355 6.2543L9.5 5.90075L9.14645 6.2543L5.10786 10.2929L4.70711 9.89214L8.7457 5.85355L9.09925 5.5L8.7457 5.14645L4.70711 1.10786L5.10786 0.707107L9.14645 4.7457L9.5 5.09925L9.85355 4.7457L13.8921 0.707107L14.2929 1.10786L10.2543 5.14645L9.90075 5.5L10.2543 5.85355Z" stroke="black"/>
</g>
<defs>
<filter id="filter0_d_1_1671" x="0" y="0" width="19" height="19" filterUnits="userSpaceOnUse" color-interpolation-filters="sRGB">
<feFlood flood-opacity="0" result="BackgroundImageFix"/>
<feColorMatrix in="SourceAlpha" type="matrix" values="0 0 0 0 0 0 0 0 0 0 0 0 0 0 0 0 0 0 127 0" result="hardAlpha"/>
<feOffset dy="4"/>
<feGaussianBlur stdDeviation="2"/>
<feComposite in2="hardAlpha" operator="out"/>
<feColorMatrix type="matrix" values="0 0 0 0 0 0 0 0 0 0 0 0 0 0 0 0 0 0 0.25 0"/>
<feBlend mode="normal" in2="BackgroundImageFix" result="effect1_dropShadow_1_1671"/>
<feBlend mode="normal" in="SourceGraphic" in2="effect1_dropShadow_1_1671" result="shape"/>
</filter>
</defs>
</svg>
